<svg xmlns="http://www.w3.org/2000/svg" viewBox="0 0 512 512" style="height: 512px; width: 512px;"><defs><filter id="shadow-1" height="300%" width="300%" x="-100%" y="-100%"><feFlood flood-color="rgba(255, 255, 255, 1)" result="flood"></feFlood><feComposite in="flood" in2="SourceGraphic" operator="atop" result="composite"></feComposite><feGaussianBlur in="composite" stdDeviation="3" result="blur"></feGaussianBlur><feOffset dy="6" result="offset" dx="6"></feOffset><feComposite in="SourceGraphic" in2="offset" operator="over"></feComposite></filter><linearGradient id="gradient-1" x1="0" x2="0" y1="0" y2="1"><stop offset="0%" stop-color="#9b9b9b" stop-opacity="1"></stop><stop offset="100%" stop-color="#8b572a" stop-opacity="1"></stop></linearGradient></defs><path d="M0 0h512v512H0z" fill="#6b6b6b" fill-opacity="1"></path><g class="" transform="translate(0,0)" style="touch-action: none;"><path d="M433.877 19.855l-78.62 158.668 47.82 53.934-15.673 260.824h38.79l15.697-261.233 51.04-45.25-59.053-166.942zm-130.48 20.598L216.073 152.55l28.397 49.186-28.616 106.387-.102-.176-9.545 35.62.076.134-40.234 149.58h32.68l29.676-111.186.026.045 9.527-35.556-.054-.09 36.656-137.344 48.415-27.95L303.4 40.452h-.002zM111.632 153.21l14.48 116.54 44.42 11.904L193 320.648l9.555-35.66-9.256-16.1 12.022-44.87-93.69-70.81zm-49.357 74.31l-42.68 79.31 23.57 28.455L30.786 493.28h18.746L61.83 336.26l27.608-22.865-27.163-85.875h-.002zm257.06 10.878l-22.354 87.248 29.686 21.932L345.04 493.28h18.84l-18.823-149.235 21.293-28.824-47.016-76.822zm175.103 28.614l-40.108 226.27h18.98l21.128-119.188V267.012zm-339.903 38.886l-55.35 71.05 18.618 32.247-20.41 84.086h19.233l19.51-80.385 30.81-17.788-12.408-89.21h-.002zm96.623 63.645l-9.517 35.516 50.837 88.22h29.8l-71.12-123.737z" fill="url(#gradient-1)" filter="url(#shadow-1)"></path></g></svg>